<?xml version="1.0" encoding="utf-8"?>
<!-- Generator: Adobe Illustrator 23.0.2, SVG Export Plug-In . SVG Version: 6.00 Build 0)  -->
<svg version="1.1" xmlns="http://www.w3.org/2000/svg" xmlns:xlink="http://www.w3.org/1999/xlink" x="0px" y="0px"
	 viewBox="0 0 176.86 162.52" style="enable-background:new 0 0 176.86 162.52;" xml:space="preserve">
<style type="text/css">
	.st0{fill:#455560;}
	.st1{fill:#3386B8;}
	.st2{fill:none;stroke:#C9D7DD;}
	.st3{fill:#74828D;}
	.st4{font-family:'GrotaSansBook';}
	.st5{font-size:7px;}
	.st6{font-family:'GrotaSansSemiBold';}
	.st7{font-size:9px;}
</style>
<g id="bars">
	<rect x="29.97" y="67.16" class="st0" width="3.5" height="79.42"/>
	<rect x="34.97" y="83.58" class="st1" width="3.5" height="63"/>
	<rect x="54.97" y="51.32" class="st0" width="3.5" height="95.26"/>
	<rect x="59.97" y="89.48" class="st1" width="3.5" height="57.1"/>
	<rect x="79.97" y="47.72" class="st0" width="3.5" height="98.86"/>
	<rect x="84.97" y="92.36" class="st1" width="3.5" height="54.22"/>
	<rect x="104.97" y="68.6" class="st0" width="3.5" height="77.98"/>
	<rect x="109.97" y="85.88" class="st1" width="3.5" height="60.7"/>
	<rect x="129.97" y="41.02" class="st0" width="3.5" height="105.56"/>
	<rect x="134.97" y="78.68" class="st1" width="3.5" height="67.9"/>
	<rect x="153.97" y="73.28" class="st0" width="3.5" height="73.3"/>
	<rect x="158.97" y="85.88" class="st1" width="3.5" height="60.7"/>
</g>
<g id="Layer_1">
	<line class="st2" x1="12.7" y1="147.08" x2="176.86" y2="147.08"/>
	<line class="st2" x1="16.08" y1="31.02" x2="16.08" y2="147.58"/>
	<text transform="matrix(1 0 0 1 25.3496 157.5308)" class="st3 st4 st5">lorum</text>
	<text transform="matrix(1 0 0 1 49.8367 157.5308)" class="st3 st4 st5">ipsum</text>
	<text transform="matrix(1 0 0 1 76.2423 157.5308)" class="st3 st4 st5">dolor</text>
	<text transform="matrix(1 0 0 1 101.3036 157.5308)" class="st3 st4 st5">sitah</text>
	<text transform="matrix(1 0 0 1 146.6206 157.5308)"><tspan x="0" y="0" class="st3 st4 st5">pa</tspan><tspan x="6.78" y="0" class="st3 st4 st5">r</tspan><tspan x="9.01" y="0" class="st3 st4 st5">aq</tspan><tspan x="15.78" y="0" class="st3 st4 st5">a</tspan><tspan x="19.02" y="0" class="st3 st4 st5">y</tspan></text>
	<text transform="matrix(1 0 0 1 123.8728 157.5308)"><tspan x="0" y="0" class="st3 st4 st5">ame</tspan><tspan x="12.29" y="0" class="st3 st4 st5">n</tspan><tspan x="15.76" y="0" class="st3 st4 st5">t</tspan></text>
	<text transform="matrix(1 0 0 1 2.8535 33.6255)"><tspan x="0" y="0" class="st3 st4 st5">7</tspan><tspan x="2.79" y="0" class="st3 st4 st5">.5</tspan></text>
	<text transform="matrix(1 0 0 1 1.6772 72.2095)"><tspan x="0" y="0" class="st3 st4 st5">5</tspan><tspan x="3.79" y="0" class="st3 st4 st5">.</tspan><tspan x="5.1" y="0" class="st3 st4 st5">0</tspan></text>
	<text transform="matrix(1 0 0 1 2.0205 110.7935)" class="st3 st4 st5">2.5</text>
	<text transform="matrix(1 0 0 1 1.4951 149.3775)"><tspan x="0" y="0" class="st3 st4 st5">0</tspan><tspan x="3.98" y="0" class="st3 st4 st5">.</tspan><tspan x="5.28" y="0" class="st3 st4 st5">0</tspan></text>
	<line class="st2" x1="12.7" y1="31.02" x2="16.58" y2="31.02"/>
	<line class="st2" x1="12.7" y1="69.71" x2="16.58" y2="69.71"/>
	<line class="st2" x1="12.7" y1="108.39" x2="16.58" y2="108.39"/>
	<text transform="matrix(1 0 0 1 0.2129 6.9537)"><tspan x="0" y="0" class="st0 st6 st7">L</tspan><tspan x="4.2" y="0" class="st0 st6 st7">orum ipsum</tspan><tspan x="48.32" y="0" class="st0 st6 st7"> </tspan><tspan x="49.83" y="0" class="st0 st6 st7">v</tspan><tspan x="54.03" y="0" class="st0 st6 st7">s. dolo</tspan><tspan x="77.4" y="0" class="st0 st6 st7">r</tspan><tspan x="80.44" y="0" class="st0 st6 st7"> sit ame</tspan><tspan x="109.25" y="0" class="st0 st6 st7">n</tspan><tspan x="113.89" y="0" class="st0 st6 st7">t </tspan></text>
</g>
</svg>
