<?xml version="1.0" encoding="utf-8"?>
<!-- Generator: Adobe Illustrator 23.0.2, SVG Export Plug-In . SVG Version: 6.00 Build 0)  -->
<svg version="1.1" xmlns="http://www.w3.org/2000/svg" xmlns:xlink="http://www.w3.org/1999/xlink" x="0px" y="0px"
	 viewBox="0 0 121.28 142.09" style="enable-background:new 0 0 121.28 142.09;" xml:space="preserve">
<style type="text/css">
	.st0{fill:none;stroke:#ADCEE2;stroke-width:5.419;}
	.st1{fill:none;stroke:#455560;stroke-width:3.87;}
	.st2{fill:#FFFFFF;}
	.st3{font-family:'GrotaSansThin';}
	.st4{font-size:45px;}
	.st5{font-family:'GrotaSansLight';}
	.st6{font-size:20px;}
	.st7{fill:#C2DBEA;}
	.st8{font-family:'GrotaSansSemiBold';}
	.st9{font-size:9px;}
	.st10{letter-spacing:-1;}
</style>
<g id="bars">
	<g>
		<circle class="st0" cx="60.41" cy="50.77" r="46.75"/>
		<path class="st1" d="M30.53,14.81c-10.31,8.58-16.88,21.5-16.88,35.96c0,25.82,20.93,46.75,46.75,46.75s46.75-20.93,46.75-46.75
			S86.23,4.02,60.41,4.02"/>
	</g>
	<text transform="matrix(1 0 0 1 34.1167 68.6487)"><tspan x="0" y="0" class="st2 st3 st4">8</tspan><tspan x="25.33" y="0" class="st2 st3 st4">9</tspan></text>
	<text transform="matrix(1 0 0 1 85.6857 60.6487)" class="st2 st5 st6">%</text>
	<text transform="matrix(1 0 0 1 26.8381 114.7737)"><tspan x="0" y="0" class="st7 st8 st9">Numquis qui qui </tspan><tspan x="60.59" y="0" class="st7 st8 st9">r</tspan><tspan x="63.68" y="0" class="st7 st8 st9">e </tspan></text>
	<text transform="matrix(1 0 0 1 13.0866 127.7698)"><tspan x="0" y="0" class="st7 st8 st9">sapellique </tspan><tspan x="38.88" y="0" class="st7 st8 st9">e</tspan><tspan x="43.19" y="0" class="st7 st8 st9">t aut</tspan><tspan x="60.34" y="0" class="st7 st8 st9"> </tspan><tspan x="61.86" y="0" class="st7 st8 st9">v</tspan><tspan x="66.06" y="0" class="st7 st8 st9">ellabo</tspan><tspan x="88.09" y="0" class="st7 st8 st9">r</tspan><tspan x="91.19" y="0" class="st7 st8 st9">e </tspan></text>
	<text transform="matrix(1 0 0 1 39.5324 140.7659)" class="st7 st8 st9">labori lorum</text>
</g>
<g id="Layer_1">
	<g>
		<circle class="st0" cx="60.41" cy="50.5" r="46.75"/>
		<path class="st1" d="M37.87,9.54C23.43,17.49,13.66,32.86,13.66,50.5c0,25.82,20.93,46.75,46.75,46.75s46.75-20.93,46.75-46.75
			c0-25.82-20.93-46.75-46.75-46.75"/>
	</g>
	<text transform="matrix(1 0 0 1 36.0966 68.0379)"><tspan x="0" y="0" class="st2 st3 st4">9</tspan><tspan x="24.48" y="0" class="st2 st3 st4">2</tspan></text>
	<text transform="matrix(1 0 0 1 81.4825 60.0379)" class="st2 st5 st6">%</text>
	<text transform="matrix(1 0 0 1 17.0554 114.9422)"><tspan x="0" y="0" class="st7 st8 st9">Dolu</tspan><tspan x="16.89" y="0" class="st7 st8 st9">p</tspan><tspan x="21.42" y="0" class="st7 st8 st9">tate si </tspan><tspan x="46" y="0" class="st7 st8 st9">r</tspan><tspan x="49.09" y="0" class="st7 st8 st9">eiciat p</tspan><tspan x="75.54" y="0" class="st7 st8 st9">r</tspan><tspan x="78.75" y="0" class="st7 st8 st9">ae </tspan></text>
	<text transform="matrix(1 0 0 1 22.073 127.9383)"><tspan x="0" y="0" class="st7 st8 st9">vidu</tspan><tspan x="15.5" y="0" class="st7 st8 st9">n</tspan><tspan x="20.14" y="0" class="st7 st8 st9">t as quas </tspan><tspan x="54.8" y="0" class="st7 st8 st9">e</tspan><tspan x="59.11" y="0" class="st7 st8 st9">t quis</tspan></text>
</g>
<g id="Layer_3">
	<g>
		<circle class="st0" cx="60.41" cy="50.77" r="46.75"/>
		<path class="st1" d="M27.35,17.71c-8.46,8.46-13.69,20.15-13.69,33.06c0,25.82,20.93,46.75,46.75,46.75s46.75-20.93,46.75-46.75
			S86.23,4.02,60.41,4.02"/>
	</g>
	<text transform="matrix(1 0 0 1 37.4013 68.6443)"><tspan x="0" y="0" class="st2 st3 st4 st10">8</tspan><tspan x="24.66" y="0" class="st2 st3 st4">7</tspan></text>
	<text transform="matrix(1 0 0 1 81.276 60.6443)" class="st2 st5 st6">%</text>
	<text transform="matrix(1 0 0 1 16.0022 114.7737)"><tspan x="0" y="0" class="st7 st8 st9">Ru</tspan><tspan x="10.03" y="0" class="st7 st8 st9">p</tspan><tspan x="14.55" y="0" class="st7 st8 st9">tatem ipitatem ditas </tspan></text>
	<text transform="matrix(1 0 0 1 34.5515 127.7698)" class="st7 st8 st9">dis eicilist mod</text>
</g>
</svg>
